<mxfile host="app.diagrams.net" modified="2024-05-28T13:51:12.171Z" agent="Mozilla/5.0 (Windows NT 10.0; Win64; x64) AppleWebKit/537.36 (KHTML, like Gecko) Chrome/125.0.0.0 Safari/537.36 Edg/125.0.0.0" etag="dEjtBuZ6S3c2i0eIpbuf" version="24.4.9" type="github">
  <diagram name="第 1 页" id="5MPuXdNRWLadD1s-bP7n">
    <mxGraphModel dx="1508" dy="865" grid="1" gridSize="10" guides="1" tooltips="1" connect="1" arrows="1" fold="1" page="1" pageScale="1" pageWidth="827" pageHeight="1169" math="0" shadow="0">
      <root>
        <mxCell id="0" />
        <mxCell id="1" parent="0" />
        <mxCell id="FS-LTzk86UXDEsg38OvG-8" value="" style="edgeStyle=orthogonalEdgeStyle;rounded=0;orthogonalLoop=1;jettySize=auto;html=1;" edge="1" parent="1" source="FS-LTzk86UXDEsg38OvG-2" target="FS-LTzk86UXDEsg38OvG-7">
          <mxGeometry relative="1" as="geometry" />
        </mxCell>
        <mxCell id="FS-LTzk86UXDEsg38OvG-2" value="用户" style="shape=umlActor;verticalLabelPosition=bottom;verticalAlign=top;html=1;outlineConnect=0;sketch=1;curveFitting=1;jiggle=2;" vertex="1" parent="1">
          <mxGeometry x="370" y="50" width="30" height="60" as="geometry" />
        </mxCell>
        <mxCell id="FS-LTzk86UXDEsg38OvG-13" style="edgeStyle=orthogonalEdgeStyle;rounded=0;orthogonalLoop=1;jettySize=auto;html=1;entryX=0;entryY=0.5;entryDx=0;entryDy=0;" edge="1" parent="1" source="FS-LTzk86UXDEsg38OvG-7" target="FS-LTzk86UXDEsg38OvG-9">
          <mxGeometry relative="1" as="geometry" />
        </mxCell>
        <mxCell id="FS-LTzk86UXDEsg38OvG-14" value="否" style="edgeLabel;html=1;align=center;verticalAlign=middle;resizable=0;points=[];fontStyle=0;fontSize=11;" vertex="1" connectable="0" parent="FS-LTzk86UXDEsg38OvG-13">
          <mxGeometry x="-0.0582" y="-2" relative="1" as="geometry">
            <mxPoint as="offset" />
          </mxGeometry>
        </mxCell>
        <mxCell id="FS-LTzk86UXDEsg38OvG-41" value="" style="edgeStyle=orthogonalEdgeStyle;rounded=0;orthogonalLoop=1;jettySize=auto;html=1;" edge="1" parent="1" source="FS-LTzk86UXDEsg38OvG-7" target="FS-LTzk86UXDEsg38OvG-40">
          <mxGeometry relative="1" as="geometry" />
        </mxCell>
        <mxCell id="FS-LTzk86UXDEsg38OvG-42" value="是" style="edgeLabel;html=1;align=center;verticalAlign=middle;resizable=0;points=[];" vertex="1" connectable="0" parent="FS-LTzk86UXDEsg38OvG-41">
          <mxGeometry x="-0.0227" relative="1" as="geometry">
            <mxPoint as="offset" />
          </mxGeometry>
        </mxCell>
        <mxCell id="FS-LTzk86UXDEsg38OvG-7" value="&lt;div&gt;&lt;/div&gt;&lt;div&gt;&lt;br&gt;&lt;/div&gt;&lt;div&gt;&lt;div&gt;&lt;br&gt;&lt;/div&gt;&lt;div&gt;&lt;span style=&quot;background-color: initial;&quot;&gt;判断方向键设置人物移动&lt;/span&gt;&lt;br&gt;&lt;/div&gt;&lt;/div&gt;" style="rhombus;whiteSpace=wrap;html=1;verticalAlign=top;fillColor=#dae8fc;strokeColor=#6c8ebf;sketch=1;curveFitting=1;jiggle=2;" vertex="1" parent="1">
          <mxGeometry x="306.25" y="215" width="157.5" height="80" as="geometry" />
        </mxCell>
        <mxCell id="FS-LTzk86UXDEsg38OvG-35" style="edgeStyle=orthogonalEdgeStyle;rounded=0;orthogonalLoop=1;jettySize=auto;html=1;exitX=0.5;exitY=0;exitDx=0;exitDy=0;" edge="1" parent="1" source="FS-LTzk86UXDEsg38OvG-9">
          <mxGeometry relative="1" as="geometry">
            <mxPoint x="400" y="180" as="targetPoint" />
            <mxPoint x="585" y="242.5" as="sourcePoint" />
            <Array as="points">
              <mxPoint x="575" y="180" />
            </Array>
          </mxGeometry>
        </mxCell>
        <mxCell id="FS-LTzk86UXDEsg38OvG-9" value="等待用户移动" style="rounded=1;whiteSpace=wrap;html=1;verticalAlign=top;sketch=1;curveFitting=1;jiggle=2;fillColor=#d5e8d4;strokeColor=#82b366;" vertex="1" parent="1">
          <mxGeometry x="520" y="246.25" width="110" height="17.5" as="geometry" />
        </mxCell>
        <mxCell id="FS-LTzk86UXDEsg38OvG-36" value="全局变量&lt;div&gt;&lt;br&gt;&lt;/div&gt;&lt;div&gt;用户坐标&lt;/div&gt;&lt;div&gt;&lt;br&gt;&lt;/div&gt;&lt;div&gt;箱子坐标&lt;/div&gt;" style="rounded=0;whiteSpace=wrap;html=1;fillColor=#f8cecc;strokeColor=#b85450;sketch=1;curveFitting=1;jiggle=2;" vertex="1" parent="1">
          <mxGeometry x="70" y="230" width="120" height="90" as="geometry" />
        </mxCell>
        <mxCell id="FS-LTzk86UXDEsg38OvG-39" value="获取当前人的位置并存储到变量中" style="rounded=0;whiteSpace=wrap;html=1;sketch=1;curveFitting=1;jiggle=2;fillColor=#e1d5e7;strokeColor=#9673a6;" vertex="1" parent="1">
          <mxGeometry x="260" y="140" width="120" height="60" as="geometry" />
        </mxCell>
        <mxCell id="FS-LTzk86UXDEsg38OvG-44" value="" style="edgeStyle=orthogonalEdgeStyle;rounded=0;orthogonalLoop=1;jettySize=auto;html=1;" edge="1" parent="1" source="FS-LTzk86UXDEsg38OvG-40" target="FS-LTzk86UXDEsg38OvG-43">
          <mxGeometry relative="1" as="geometry" />
        </mxCell>
        <mxCell id="FS-LTzk86UXDEsg38OvG-40" value="1. 什么都没碰到，则移动生效&lt;div&gt;2. 碰到墙，还原回移动的位置&lt;/div&gt;&lt;div&gt;3. 碰到箱子，箱子跟随移动&lt;/div&gt;" style="whiteSpace=wrap;html=1;verticalAlign=top;fillColor=#dae8fc;strokeColor=#6c8ebf;sketch=1;curveFitting=1;jiggle=2;align=left;" vertex="1" parent="1">
          <mxGeometry x="325" y="340" width="120" height="100" as="geometry" />
        </mxCell>
        <mxCell id="FS-LTzk86UXDEsg38OvG-46" value="" style="edgeStyle=orthogonalEdgeStyle;rounded=0;orthogonalLoop=1;jettySize=auto;html=1;" edge="1" parent="1" source="FS-LTzk86UXDEsg38OvG-43" target="FS-LTzk86UXDEsg38OvG-45">
          <mxGeometry relative="1" as="geometry" />
        </mxCell>
        <mxCell id="FS-LTzk86UXDEsg38OvG-43" value="&lt;div&gt;&lt;br&gt;&lt;/div&gt;判断箱子移动" style="rhombus;whiteSpace=wrap;html=1;verticalAlign=top;fillColor=#dae8fc;strokeColor=#6c8ebf;sketch=1;curveFitting=1;jiggle=2;" vertex="1" parent="1">
          <mxGeometry x="307.5" y="480" width="155" height="60" as="geometry" />
        </mxCell>
        <mxCell id="FS-LTzk86UXDEsg38OvG-48" value="" style="edgeStyle=orthogonalEdgeStyle;rounded=0;orthogonalLoop=1;jettySize=auto;html=1;" edge="1" parent="1" source="FS-LTzk86UXDEsg38OvG-45" target="FS-LTzk86UXDEsg38OvG-47">
          <mxGeometry relative="1" as="geometry" />
        </mxCell>
        <mxCell id="FS-LTzk86UXDEsg38OvG-45" value="1.什么都没碰到，则移动生效（状态设置为状态1）&lt;div&gt;2.碰到墙、其他箱子，人、箱子均还原回移动前位置&lt;/div&gt;&lt;div&gt;3.碰到目的地，则状态变为状态2（抵达）。&lt;/div&gt;" style="whiteSpace=wrap;html=1;verticalAlign=top;fillColor=#dae8fc;strokeColor=#6c8ebf;sketch=1;curveFitting=1;jiggle=2;align=left;" vertex="1" parent="1">
          <mxGeometry x="290" y="585" width="190" height="100" as="geometry" />
        </mxCell>
        <mxCell id="FS-LTzk86UXDEsg38OvG-50" value="" style="edgeStyle=orthogonalEdgeStyle;rounded=0;orthogonalLoop=1;jettySize=auto;html=1;" edge="1" parent="1" source="FS-LTzk86UXDEsg38OvG-47" target="FS-LTzk86UXDEsg38OvG-49">
          <mxGeometry relative="1" as="geometry" />
        </mxCell>
        <mxCell id="FS-LTzk86UXDEsg38OvG-47" value="&lt;div&gt;&lt;br&gt;&lt;/div&gt;判断游戏结果" style="rhombus;whiteSpace=wrap;html=1;align=center;verticalAlign=top;fillColor=#dae8fc;strokeColor=#6c8ebf;sketch=1;curveFitting=1;jiggle=2;" vertex="1" parent="1">
          <mxGeometry x="318.75" y="730" width="132.5" height="60" as="geometry" />
        </mxCell>
        <mxCell id="FS-LTzk86UXDEsg38OvG-49" value="如果箱子碰到目的地，改变状态后判断游戏是否结束。&lt;div&gt;即判断所有箱子是否都处于目的地。&lt;/div&gt;" style="whiteSpace=wrap;html=1;verticalAlign=top;fillColor=#dae8fc;strokeColor=#6c8ebf;sketch=1;curveFitting=1;jiggle=2;align=left;" vertex="1" parent="1">
          <mxGeometry x="325" y="820" width="120" height="90" as="geometry" />
        </mxCell>
      </root>
    </mxGraphModel>
  </diagram>
</mxfile>
